<svg width="105" height="16" viewBox="0 0 105 16" fill="none" xmlns="http://www.w3.org/2000/svg">
<g clip-path="url(#clip0_628_11707)">
<path fill-rule="evenodd" clip-rule="evenodd" d="M68.9119 4.79047V5.22959C68.9119 6.20954 69.7079 7.00342 70.6904 7.00342C71.6729 7.00342 72.4689 6.20954 72.4689 5.22959V4.79047H68.9144H68.9119Z" fill="#31C7AD"/>
<path d="M98.0853 14.0595C96.6875 14.0595 95.5682 13.742 94.7297 13.1068C93.889 12.4717 93.4712 11.5463 93.4712 10.3332C93.4712 9.12007 93.8912 8.1773 94.7297 7.54217C95.5704 6.9071 96.6875 6.58955 98.0853 6.58955C99.4831 6.58955 100.592 6.9071 101.415 7.54217C102.239 8.1773 102.649 9.10763 102.649 10.3332C102.649 11.5588 102.239 12.4717 101.415 13.1068C100.592 13.742 99.4831 14.0595 98.0853 14.0595ZM98.0853 15.9996C99.5276 15.9996 100.766 15.7737 101.803 15.3247C102.841 14.8757 103.632 14.2257 104.179 13.3772C104.727 12.5288 105 11.5141 105 10.3332C105 9.15228 104.727 8.13512 104.179 7.28174C103.632 6.42829 102.843 5.77582 101.811 5.32678C100.779 4.87774 99.5378 4.65198 98.0824 4.65198C96.6277 4.65198 95.4013 4.87774 94.3637 5.32678C93.3268 5.77582 92.5356 6.42829 91.9888 7.28174C91.4412 8.13512 91.1677 9.15228 91.1677 10.3332C91.1677 11.5141 91.4412 12.5288 91.9888 13.3772C92.5356 14.2257 93.3268 14.8757 94.3637 15.3247C95.4013 15.7737 96.6401 15.9996 98.0824 15.9996H98.0853ZM82.2187 15.9996C84.0562 15.9996 85.5116 15.6398 86.5886 14.9204C87.6655 14.2009 88.2824 13.1788 88.4392 11.8515H86.2079C85.9593 12.5585 85.5043 13.1068 84.8378 13.4964C84.1736 13.8833 83.3 14.0769 82.2187 14.0769C80.7983 14.0769 79.671 13.7543 78.8383 13.1068C78.0048 12.4593 77.587 11.5414 77.587 10.3505C77.587 9.15977 78.0048 8.21948 78.8383 7.56952C79.671 6.91702 80.7983 6.59203 82.2187 6.59203C83.3124 6.59203 84.1911 6.78802 84.8546 7.18248C85.5189 7.57694 85.9717 8.13759 86.2079 8.86945H88.4392C88.2926 7.54217 87.6779 6.50768 86.5959 5.7659C85.5138 5.02412 84.054 4.65198 82.2187 4.65198C80.8325 4.65198 79.6163 4.86782 78.5743 5.30197C77.5323 5.73364 76.7215 6.37868 76.1396 7.23209C75.5599 8.08552 75.269 9.12501 75.269 10.3505C75.269 11.5761 75.5599 12.6107 76.1396 13.4542C76.7186 14.2977 77.5323 14.9327 78.5743 15.3595C79.6163 15.7862 80.8303 15.9996 82.2187 15.9996ZM71.8113 15.7812V8.14756H69.5627V15.7812H71.8113ZM66.2222 15.7812V13.9106H58.9518V4.8703H56.7032V15.7788H66.2222V15.7812ZM53.4498 15.7812V13.9106H45.0126V11.2288H52.803V9.45745H45.0126V6.74337H53.4323V4.87278H42.7641V15.7812H53.4472H53.4498ZM35.5209 10.4523H30.7876V6.79298H35.5209C36.1179 6.79298 36.5906 6.95424 36.9412 7.27425C37.2895 7.59432 37.4661 8.04828 37.4661 8.63134C37.4661 9.21432 37.2919 9.65097 36.9412 9.97097C36.5906 10.291 36.1179 10.4523 35.5209 10.4523ZM30.7876 15.7812V12.241H35.3195C36.6378 12.241 37.6999 11.9483 38.5058 11.3652C39.3117 10.7798 39.7146 9.8693 39.7146 8.63381C39.7146 7.39832 39.3092 6.43325 38.4983 5.81055C37.6874 5.18785 36.6278 4.87526 35.3195 4.87526H28.5415V15.7837H30.79L30.7876 15.7812Z" fill="#225060"/>
<path fill-rule="evenodd" clip-rule="evenodd" d="M6.81885 4.77805H22.2852C23.0935 4.77557 23.4542 5.70094 22.892 6.25666L13.7685 14.6619C11.1169 17.1055 6.81885 15.23 6.81885 11.6278V4.77557V4.77805Z" fill="#31C7AD"/>
<path fill-rule="evenodd" clip-rule="evenodd" d="M6.81885 11.385C10.4877 11.3652 13.4601 8.42531 13.5272 4.77841H6.81885V11.385Z" fill="#225060"/>
<path fill-rule="evenodd" clip-rule="evenodd" d="M0.562139 4.77821H0V3.96944C0 2.08645 1.53221 0.558228 3.4201 0.558228C5.30799 0.558228 6.8178 2.07653 6.8178 3.94711V4.77821H0.562139Z" fill="#225060"/>
</g>
<defs>
<clipPath id="clip0_628_11707">
<rect width="105" height="16" fill="white"/>
</clipPath>
</defs>
</svg>
