<svg width="28" height="28" viewBox="0 0 28 28" fill="none" xmlns="http://www.w3.org/2000/svg">
<rect x="0.000722543" y="0.000722543" width="27.9986" height="27.9986" stroke="#9747FF" stroke-width="0.00144509"/>
<path fill-rule="evenodd" clip-rule="evenodd" d="M13.5142 20.7769C11.0858 20.7769 9.11011 18.8076 9.11011 16.3873V9.83932L22.4802 9.83905C23.2154 9.83905 23.8663 10.2686 24.1406 10.9331C24.4175 11.6033 24.2589 12.3723 23.7366 12.8922L23.7068 12.9206L16.4674 19.6072C15.6505 20.3615 14.6019 20.7769 13.5142 20.7769Z" fill="#31C7AD"/>
<path d="M22.4845 8.74292H22.4783L10.2093 8.74319L8.01392 8.74333V16.3889C8.01392 17.9244 8.62208 19.3403 9.72617 20.3755C10.7434 21.3293 12.1247 21.8763 13.5158 21.8763C14.8802 21.8763 16.1936 21.3575 17.2137 20.4153L24.4532 13.7287L24.4833 13.701L24.5124 13.6721C25.3509 12.8375 25.604 11.5986 25.1571 10.516C24.7123 9.43877 23.6634 8.74292 22.4845 8.74292ZM22.4844 10.9385C23.1244 10.9385 23.408 11.6734 22.9636 12.116L15.724 18.8024C15.0674 19.4089 14.2833 19.6807 13.5158 19.6807C11.8232 19.6807 10.2095 18.3596 10.2095 16.3889V10.9387L22.4816 10.9385H22.4844Z" fill="white"/>
<path fill-rule="evenodd" clip-rule="evenodd" d="M10.2089 16.1937C13.1195 16.178 15.4789 13.8398 15.531 10.9379L10.2089 10.938V16.1937Z" fill="#005161"/>
<path fill-rule="evenodd" clip-rule="evenodd" d="M10.2082 10.9369H4.79797V10.2944C4.79797 8.79542 6.01335 7.58005 7.5125 7.58005C9.00122 7.58005 10.2082 8.78692 10.2082 10.2758V10.9369Z" fill="#005161"/>
<path d="M7.51297 5.3851C4.80558 5.3851 2.60303 7.58765 2.60303 10.295V11.5772C2.60303 12.4365 3.29957 13.1331 4.15885 13.1331H9.79703L10.2087 10.9375L12.4042 10.6631V10.2764C12.4042 7.57928 10.2101 5.3851 7.51297 5.3851ZM7.51297 7.58065C9.00183 7.58065 10.2087 8.78752 10.2087 10.2764V10.9375H4.79858V10.295C4.79858 8.79589 6.01382 7.58065 7.51297 7.58065Z" fill="white"/>
</svg>
